# Blender v2.80 (sub 75) OBJ File: ''
# www.blender.org
mtllib untitled6.mtl
o Cube
v 0.069095 -1.000000 1.000000
v 0.069095 1.000000 1.000000
v 0.069095 -1.000000 -1.000000
v 0.069095 1.000000 -1.000000
v 0.063951 -1.000000 1.000000
v 0.063951 1.000000 1.000000
v 0.063951 -1.000000 -1.000000
v 0.063951 1.000000 -1.000000
v 1.000000 1.000000 -0.013600
v 1.000000 -1.000000 -0.013600
v -1.000000 1.000000 -0.013600
v -1.000000 -1.000000 -0.013600
v 1.000000 1.000000 -0.018526
v 1.000000 -1.000000 -0.018526
v -1.000000 1.000000 -0.018526
v -1.000000 -1.000000 -0.018526
vt 0.496210 0.515655
vt 0.493825 0.940841
vt 0.270397 0.936291
vt 0.272782 0.511105
vt 0.495434 0.089646
vt 0.496409 0.514852
vt 0.272971 0.516712
vt 0.271996 0.091506
vt 0.718448 0.515237
vt 0.719019 0.940446
vt 0.495579 0.941537
vt 0.495008 0.516327
vt 0.941595 0.513807
vt 0.941472 0.939017
vt 0.718032 0.938784
vt 0.718154 0.513574
vn 0.0000 0.0000 1.0000
vn -1.0000 0.0000 0.0000
vn 1.0000 0.0000 0.0000
vn 0.0000 0.0000 -1.0000
usemtl Material
s off
f 10/1/1 9/2/1 11/3/1 12/4/1
f 5/5/2 6/6/2 8/7/2 7/8/2
f 3/9/3 4/10/3 2/11/3 1/12/3
f 16/13/4 15/14/4 13/15/4 14/16/4
