# Blender v2.80 (sub 75) OBJ File: 'untitled.blend'
# www.blender.org
mtllib untitled3.mtl
o Cube
v -1.000000 1.000000 1.000000
v 1.000000 1.000000 1.000000
v -1.000000 1.000000 0.056028
v -1.000000 -1.000000 0.056028
v 1.000000 1.000000 0.056028
v 1.000000 -1.000000 0.056028
v -1.000000 1.000000 0.064109
v -1.000000 -1.000000 0.064109
v 1.000000 1.000000 0.064109
v 1.000000 -1.000000 0.064109
v -0.016270 1.000000 -1.000000
v -0.016270 -1.000000 -1.000000
v -0.016270 -1.000000 1.000000
v -0.016270 1.000000 1.000000
v -0.036908 1.000000 -1.000000
v -0.036908 -1.000000 -1.000000
v -0.036908 -1.000000 1.000000
v -0.036908 1.000000 1.000000
v -1.000000 0.302914 1.000000
v 1.000000 0.302914 1.000000
v -1.000000 0.299392 1.000000
v 1.000000 0.299392 1.000000
vt 0.415325 0.750788
vt 0.244422 0.750311
vt 0.244898 0.579407
vt 0.415802 0.579884
vt 0.586468 0.579645
vt 0.757373 0.579645
vt 0.757373 0.750550
vt 0.586468 0.750550
vt 0.416239 0.580314
vt 0.414895 0.409415
vt 0.585794 0.408071
vt 0.587138 0.578971
vt 0.588103 0.750109
vt 0.588194 0.921013
vt 0.417289 0.921104
vt 0.417198 0.750200
vn -1.0000 0.0000 0.0000
vn 0.0000 0.0000 1.0000
vn 0.0000 0.0000 -1.0000
vn 1.0000 0.0000 0.0000
usemtl Material
s off
f 17/1/1 18/2/1 15/3/1 16/4/1
f 6/5/2 5/6/2 3/7/2 4/8/2
f 8/9/3 7/10/3 9/11/3 10/12/3
f 12/13/4 11/14/4 14/15/4 13/16/4
l 1 2
l 22 21
l 19 20
