# Blender v2.80 (sub 75) OBJ File: 'untitled.blend'
# www.blender.org
mtllib untitled.mtl
o Cube
v -1.000000 1.000000 1.000000
v -1.000000 -1.000000 1.000000
v -1.000000 1.000000 -1.000000
v -1.000000 -1.000000 -1.000000
v 1.000000 1.000000 1.000000
v 1.000000 -1.000000 1.000000
v 1.000000 1.000000 -1.000000
v 1.000000 -1.000000 -1.000000
vt 0.415564 0.237836
vt 0.586468 0.237836
vt 0.586468 0.408741
vt 0.415564 0.408741
vt 0.416239 0.580314
vt 0.414895 0.409415
vt 0.585794 0.408071
vt 0.587138 0.578971
vt 0.588103 0.750109
vt 0.588194 0.921013
vt 0.417289 0.921104
vt 0.417198 0.750200
vt 0.418084 0.578360
vt 0.588988 0.578360
vt 0.588988 0.749265
vt 0.418084 0.749265
vt 0.415325 0.750788
vt 0.244422 0.750311
vt 0.244898 0.579407
vt 0.415802 0.579884
vt 0.586468 0.579645
vt 0.757373 0.579645
vt 0.757373 0.750550
vt 0.586468 0.750550
vn 0.0000 1.0000 0.0000
vn 0.0000 0.0000 -1.0000
vn 1.0000 0.0000 0.0000
vn 0.0000 -1.0000 0.0000
vn -1.0000 0.0000 0.0000
vn 0.0000 0.0000 1.0000
usemtl Material
s off
f 1/1/1 5/2/1 7/3/1 3/4/1
f 4/5/2 3/6/2 7/7/2 8/8/2
f 8/9/3 7/10/3 5/11/3 6/12/3
f 6/13/4 2/14/4 4/15/4 8/16/4
f 2/17/5 1/18/5 3/19/5 4/20/5
f 6/21/6 5/22/6 1/23/6 2/24/6
